<svg xmlns="http://www.w3.org/2000/svg" xmlns:xlink="http://www.w3.org/1999/xlink" fill="currentColor" role="img" height="16" width="16" viewBox="0 0 16 16">
  <path d="M15.939 11.137l-1.605-7.553A2.001 2.001 0 0012.378 2H3.622a2 2 0 00-1.956 1.584L.061 11.137a2 2 0 001.541 2.372l.137.029a1.998 1.998 0 001.936-.657L5.281 11h5.438l1.606 1.88a1.998 1.998 0 001.936.657l.137-.029a1.998 1.998 0 001.541-2.371zm-1.746 1.393l-.14.029a.997.997 0 01-.968-.329l-1.606-1.88-.299-.35H4.82l-.3.351-1.606 1.88a.997.997 0 01-.971.329l-.133-.029a1.001 1.001 0 01-.77-1.186l1.605-7.553c.097-.459.508-.792.977-.792h8.755c.469 0 .881.333.978.792l1.605 7.553a.999.999 0 01-.767 1.185zM6 5.001H5v1H4v1h1v1h1v-1h1v-1H6v-1zm5 .5a1 1 0 100 2 1 1 0 000-2z"/>
</svg>
