<svg xmlns="http://www.w3.org/2000/svg" xmlns:xlink="http://www.w3.org/1999/xlink" fill="currentColor" role="img" height="16" width="16" viewBox="0 0 16 16">
      <path d="M1.69 2A4.582 4.582 0 018 2.023 4.583 4.583 0 0111.88.817h.002a4.618 4.618 0 013.782 3.65v.003a4.543 4.543 0 01-1.011 3.84L9.35 14.629a1.765 1.765 0 01-2.093.464 1.762 1.762 0 01-.605-.463L1.348 8.309A4.582 4.582 0 011.689 2zm3.158.252A3.082 3.082 0 002.49 7.337l.005.005L7.8 13.664a.264.264 0 00.311.069.262.262 0 00.09-.069l5.312-6.33a3.043 3.043 0 00.68-2.573 3.118 3.118 0 00-2.551-2.463 3.079 3.079 0 00-2.612.816l-.007.007a1.501 1.501 0 01-2.045 0l-.009-.008a3.082 3.082 0 00-2.121-.861z"></path>
      <path d="M7.3 9.39h1.47v-.14c0-.3.08-.55.25-.78.16-.22.35-.43.57-.63.17-.16.33-.33.48-.5.15-.17.28-.35.37-.55.1-.21.16-.45.16-.71a2.12 2.12 0 0 0-1.13-1.85 2.66 2.66 0 0 0-1.36-.33c-.44 0-.85.08-1.2.25-.36.17-.65.4-.88.69-.23.29-.37.63-.43 1.02l1.45.36a.97.97 0 0 1 .34-.62c.2-.16.42-.24.68-.24.3 0 .52.07.68.22.16.14.24.32.24.54a.8.8 0 0 1-.24.57l-.55.54c-.21.23-.42.49-.61.78-.19.3-.28.68-.28 1.14v.24Zm-.03 2.4h1.56v-1.57H7.27v1.57Z" />
</svg>

