<svg xmlns="http://www.w3.org/2000/svg" xmlns:xlink="http://www.w3.org/1999/xlink" fill="currentColor" role="img" height="16" width="16" viewBox="0 0 16 16">
  <path d="M11.846 3h-1.059l-.638-3H5.85l-.638 3H4.154C3.519 3 3 3.52 3 4.154v7.692C3 12.481 3.519 13 4.154 13h1.059l.638 3h4.299l.638-3h1.059c.634 0 1.153-.519 1.153-1.154V4.154C13 3.52 12.481 3 11.846 3zM6.66 1h2.68l.425 2h-3.53l.425-2zm2.68 14H6.66l-.425-2h3.53l-.425 2zM12 11.846a.158.158 0 01-.154.154H4.154A.158.158 0 014 11.846V4.154C4 4.072 4.072 4 4.154 4h7.692c.082 0 .154.072.154.154v7.692z"/><path d="M11.846 3h-1.059l-.638-3H5.85l-.638 3H4.154C3.519 3 3 3.52 3 4.154v7.692C3 12.481 3.519 13 4.154 13h1.059l.638 3h4.299l.638-3h1.059c.634 0 1.153-.519 1.153-1.154V4.154C13 3.52 12.481 3 11.846 3zM6.66 1h2.68l.425 2h-3.53l.425-2zm2.68 14H6.66l-.425-2h3.53l-.425 2zM12 11.846a.158.158 0 01-.154.154H4.154A.158.158 0 014 11.846V4.154C4 4.072 4.072 4 4.154 4h7.692c.082 0 .154.072.154.154v7.692z"/>
</svg>
