<?xml version="1.0" encoding="utf-8"?><svg xmlns="http://www.w3.org/2000/svg" xmlns:xlink="http://www.w3.org/1999/xlink"><symbol fill="currentColor" viewBox="0 0 24 24" id="icon-chevron-left" xmlns="http://www.w3.org/2000/svg"><path d="M15.957 2.793a1 1 0 010 1.414L8.164 12l7.793 7.793a1 1 0 11-1.414 1.414L5.336 12l9.207-9.207a1 1 0 011.414 0z"/></symbol><symbol fill="currentColor" viewBox="0 0 24 24" id="icon-chevron-right" xmlns="http://www.w3.org/2000/svg"><path d="M8.043 2.793a1 1 0 000 1.414L15.836 12l-7.793 7.793a1 1 0 101.414 1.414L18.664 12 9.457 2.793a1 1 0 00-1.414 0z"/></symbol><symbol fill="currentColor" viewBox="0 0 16 16" id="icon-clock" xmlns="http://www.w3.org/2000/svg"><path d="M8 1.5a6.5 6.5 0 100 13 6.5 6.5 0 000-13zM0 8a8 8 0 1116 0A8 8 0 010 8z"/><path d="M8 3.25a.75.75 0 01.75.75v3.25H11a.75.75 0 010 1.5H7.25V4A.75.75 0 018 3.25z"/></symbol><symbol fill="currentColor" viewBox="0 0 24 24" id="icon-collection" xmlns="http://www.w3.org/2000/svg"><path d="M14.5 2.134a1 1 0 011 0l6 3.464a1 1 0 01.5.866V21a1 1 0 01-1 1h-6a1 1 0 01-1-1V3a1 1 0 01.5-.866zM16 4.732V20h4V7.041l-4-2.309zM3 22a1 1 0 01-1-1V3a1 1 0 012 0v18a1 1 0 01-1 1zm6 0a1 1 0 01-1-1V3a1 1 0 012 0v18a1 1 0 01-1 1z"/></symbol><symbol fill="currentColor" viewBox="0 0 24 24" id="icon-collection-active" xmlns="http://www.w3.org/2000/svg"><path d="M3 22a1 1 0 01-1-1V3a1 1 0 012 0v18a1 1 0 01-1 1zM15.5 2.134A1 1 0 0014 3v18a1 1 0 001 1h6a1 1 0 001-1V6.464a1 1 0 00-.5-.866l-6-3.464zM9 2a1 1 0 00-1 1v18a1 1 0 102 0V3a1 1 0 00-1-1z"/></symbol><symbol fill="currentColor" viewBox="0 0 16 16" id="icon-computer" xmlns="http://www.w3.org/2000/svg"><path d="M3.001 12h10c.55 0 1-.45 1-1V3c0-.55-.45-1-1-1h-10c-.55 0-1 .45-1 1v8c0 .55.45 1 1 1zm0-9h10v8h-10V3zm12.5 11H.5c-.275 0-.5.225-.5.5s.225.5.5.5h15.001c.275 0 .5-.225.5-.5s-.225-.5-.5-.5z"/><path d="M3.001 12h10c.55 0 1-.45 1-1V3c0-.55-.45-1-1-1h-10c-.55 0-1 .45-1 1v8c0 .55.45 1 1 1zm0-9h10v8h-10V3zm12.5 11H.5c-.275 0-.5.225-.5.5s.225.5.5.5h15.001c.275 0 .5-.225.5-.5s-.225-.5-.5-.5z"/></symbol><symbol fill="currentColor" viewBox="0 0 16 16" id="icon-external-link" xmlns="http://www.w3.org/2000/svg"><path d="M1 2.75A.75.75 0 011.75 2H7v1.5H2.5v11h10.219V9h1.5v6.25a.75.75 0 01-.75.75H1.75a.75.75 0 01-.75-.75V2.75z"/><path d="M15 1v4.993a.75.75 0 11-1.5 0V3.56L8.78 8.28a.75.75 0 01-1.06-1.06l4.72-4.72h-2.433a.75.75 0 010-1.5H15z"/></symbol><symbol fill="currentColor" viewBox="0 0 16 16" id="icon-fullscreen" xmlns="http://www.w3.org/2000/svg"><path d="M6.53 9.47a.75.75 0 010 1.06l-2.72 2.72h1.018a.75.75 0 010 1.5H1.25v-3.579a.75.75 0 011.5 0v1.018l2.72-2.72a.75.75 0 011.06 0zm2.94-2.94a.75.75 0 010-1.06l2.72-2.72h-1.018a.75.75 0 110-1.5h3.578v3.579a.75.75 0 01-1.5 0V3.81l-2.72 2.72a.75.75 0 01-1.06 0z"/></symbol><symbol fill="currentColor" viewBox="0 0 16 16" id="icon-game-console" xmlns="http://www.w3.org/2000/svg"><path d="M15.939 11.137l-1.605-7.553A2.001 2.001 0 0012.378 2H3.622a2 2 0 00-1.956 1.584L.061 11.137a2 2 0 001.541 2.372l.137.029a1.998 1.998 0 001.936-.657L5.281 11h5.438l1.606 1.88a1.998 1.998 0 001.936.657l.137-.029a1.998 1.998 0 001.541-2.371zm-1.746 1.393l-.14.029a.997.997 0 01-.968-.329l-1.606-1.88-.299-.35H4.82l-.3.351-1.606 1.88a.997.997 0 01-.971.329l-.133-.029a1.001 1.001 0 01-.77-1.186l1.605-7.553c.097-.459.508-.792.977-.792h8.755c.469 0 .881.333.978.792l1.605 7.553a.999.999 0 01-.767 1.185zM6 5.001H5v1H4v1h1v1h1v-1h1v-1H6v-1zm5 .5a1 1 0 100 2 1 1 0 000-2z"/></symbol><symbol fill="currentColor" viewBox="0 0 16 16" id="icon-generic-device" xmlns="http://www.w3.org/2000/svg"><path d="M0 3v8c0 .55.45 1 1 1h5v-1H1V3h5V2H1c-.55 0-1 .45-1 1zm3 11.5c0 .275.225.5.5.5H6v-1H3.5c-.275 0-.5.225-.5.5zM15 2H9c-.55 0-1 .45-1 1v11c0 .55.45 1 1 1h6c.55 0 1-.45 1-1V3c0-.55-.45-1-1-1zm0 12H9V3h6v11zm-3-8a.75.75 0 100-1.5.75.75 0 000 1.5zm0 6a2 2 0 100-4 2 2 0 000 4zm0-3c.551 0 1 .449 1 1s-.449 1-1 1-1-.449-1-1 .449-1 1-1z"/></symbol><symbol fill="currentColor" viewBox="0 0 16 16" id="icon-heart" xmlns="http://www.w3.org/2000/svg"><path d="M1.69 2A4.582 4.582 0 018 2.023 4.583 4.583 0 0111.88.817h.002a4.618 4.618 0 013.782 3.65v.003a4.543 4.543 0 01-1.011 3.84L9.35 14.629a1.765 1.765 0 01-2.093.464 1.762 1.762 0 01-.605-.463L1.348 8.309A4.582 4.582 0 011.689 2zm3.158.252A3.082 3.082 0 002.49 7.337l.005.005L7.8 13.664a.264.264 0 00.311.069.262.262 0 00.09-.069l5.312-6.33a3.043 3.043 0 00.68-2.573 3.118 3.118 0 00-2.551-2.463 3.079 3.079 0 00-2.612.816l-.007.007a1.501 1.501 0 01-2.045 0l-.009-.008a3.082 3.082 0 00-2.121-.861z"/></symbol><symbol fill="currentColor" viewBox="0 0 16 16" id="icon-heart-filled" xmlns="http://www.w3.org/2000/svg"><path d="M15.724 4.22A4.313 4.313 0 0012.192.814a4.269 4.269 0 00-3.622 1.13.837.837 0 01-1.14 0 4.272 4.272 0 00-6.21 5.855l5.916 7.05a1.128 1.128 0 001.727 0l5.916-7.05a4.228 4.228 0 00.945-3.577z"/></symbol><symbol fill="currentColor" viewBox="0 0 16 16" id="icon-heart-unknown" xmlns="http://www.w3.org/2000/svg"><path d="M1.69 2A4.582 4.582 0 018 2.023 4.583 4.583 0 0111.88.817h.002a4.618 4.618 0 013.782 3.65v.003a4.543 4.543 0 01-1.011 3.84L9.35 14.629a1.765 1.765 0 01-2.093.464 1.762 1.762 0 01-.605-.463L1.348 8.309A4.582 4.582 0 011.689 2zm3.158.252A3.082 3.082 0 002.49 7.337l.005.005L7.8 13.664a.264.264 0 00.311.069.262.262 0 00.09-.069l5.312-6.33a3.043 3.043 0 00.68-2.573 3.118 3.118 0 00-2.551-2.463 3.079 3.079 0 00-2.612.816l-.007.007a1.501 1.501 0 01-2.045 0l-.009-.008a3.082 3.082 0 00-2.121-.861z"/><path d="M7.3 9.39h1.47v-.14c0-.3.08-.55.25-.78.16-.22.35-.43.57-.63.17-.16.33-.33.48-.5.15-.17.28-.35.37-.55.1-.21.16-.45.16-.71a2.12 2.12 0 00-1.13-1.85 2.66 2.66 0 00-1.36-.33c-.44 0-.85.08-1.2.25-.36.17-.65.4-.88.69-.23.29-.37.63-.43 1.02l1.45.36a.97.97 0 01.34-.62c.2-.16.42-.24.68-.24.3 0 .52.07.68.22.16.14.24.32.24.54a.8.8 0 01-.24.57l-.55.54c-.21.23-.42.49-.61.78-.19.3-.28.68-.28 1.14v.24zm-.03 2.4h1.56v-1.57H7.27v1.57z"/></symbol><symbol fill="currentColor" viewBox="0 0 24 24" id="icon-home" xmlns="http://www.w3.org/2000/svg"><path d="M12.5 3.247a1 1 0 00-1 0L4 7.577V20h4.5v-6a1 1 0 011-1h5a1 1 0 011 1v6H20V7.577l-7.5-4.33zm-2-1.732a3 3 0 013 0l7.5 4.33a2 2 0 011 1.732V21a1 1 0 01-1 1h-6.5a1 1 0 01-1-1v-6h-3v6a1 1 0 01-1 1H3a1 1 0 01-1-1V7.577a2 2 0 011-1.732l7.5-4.33z"/></symbol><symbol fill="currentColor" viewBox="0 0 24 24" id="icon-home-active" xmlns="http://www.w3.org/2000/svg"><path d="M13.5 1.515a3 3 0 00-3 0L3 5.845a2 2 0 00-1 1.732V21a1 1 0 001 1h6a1 1 0 001-1v-6h4v6a1 1 0 001 1h6a1 1 0 001-1V7.577a2 2 0 00-1-1.732l-7.5-4.33z"/></symbol><symbol fill="currentColor" viewBox="0 0 16 16" id="icon-hypnotize" xmlns="http://www.w3.org/2000/svg"><path d="M7.949 7.998l.006-.003.003.009-.01-.006zm.025-.028v-.03l.018.01-.018.02zm0 .015l.04-.022.01.006v.04l-.029.016-.021-.012v-.028zm.049.057v-.014l-.008.01.008.004zm-.05-.008h.006l-.006.004v-.004z"/><path fill-rule="evenodd" d="M8 0a8 8 0 100 16A8 8 0 008 0zM4.965 1.69a6.972 6.972 0 013.861-.642c.722.767 1.177 1.887 1.177 3.135 0 1.656-.802 3.088-1.965 3.766 1.263.24 2.655-.815 3.406-2.742.38-.975.537-2.023.492-2.996a7.027 7.027 0 012.488 3.003c-.303 1.01-1.046 1.966-2.128 2.59-1.44.832-3.09.85-4.26.173l.008.021.012-.006-.01.01c.42 1.218 2.032 1.9 4.08 1.586a7.415 7.415 0 002.856-1.081 6.963 6.963 0 01-1.358 3.662c-1.03.248-2.235.084-3.322-.544-1.433-.827-2.272-2.236-2.279-3.58l-.012-.003c-.845.972-.63 2.71.666 4.327a7.415 7.415 0 002.37 1.935 6.972 6.972 0 01-3.86.65c-.727-.767-1.186-1.892-1.186-3.146 0-1.658.804-3.091 1.969-3.768l-.002-.007c-1.266-.25-2.666.805-3.42 2.74a7.415 7.415 0 00-.49 3.012 7.026 7.026 0 01-2.49-3.018C1.87 9.757 2.613 8.8 3.696 8.174c1.438-.83 3.084-.85 4.253-.176l.005-.006C7.538 6.77 5.924 6.085 3.872 6.4c-1.04.16-2.03.55-2.853 1.08a6.962 6.962 0 011.372-3.667l-.002.003c1.025-.243 2.224-.078 3.306.547 1.43.826 2.269 2.23 2.28 3.573L8 7.941c.837-.974.62-2.706-.673-4.319a7.415 7.415 0 00-2.362-1.931z"/></symbol><symbol fill="currentColor" viewBox="0 0 16 16" id="icon-kebab-menu" xmlns="http://www.w3.org/2000/svg"><path d="M3 8a1.5 1.5 0 11-3 0 1.5 1.5 0 013 0zm6.5 0a1.5 1.5 0 11-3 0 1.5 1.5 0 013 0zM16 8a1.5 1.5 0 11-3 0 1.5 1.5 0 013 0z"/></symbol><symbol fill="currentColor" viewBox="0 0 16 16" id="icon-next" xmlns="http://www.w3.org/2000/svg"><path d="M12.7 1a.7.7 0 00-.7.7v5.15L2.05 1.107A.7.7 0 001 1.712v12.575a.7.7 0 001.05.607L12 9.149V14.3a.7.7 0 00.7.7h1.6a.7.7 0 00.7-.7V1.7a.7.7 0 00-.7-.7h-1.6z"/></symbol><symbol fill="currentColor" viewBox="0 0 16 16" id="icon-pause" xmlns="http://www.w3.org/2000/svg"><path d="M2.7 1a.7.7 0 00-.7.7v12.6a.7.7 0 00.7.7h2.6a.7.7 0 00.7-.7V1.7a.7.7 0 00-.7-.7H2.7zm8 0a.7.7 0 00-.7.7v12.6a.7.7 0 00.7.7h2.6a.7.7 0 00.7-.7V1.7a.7.7 0 00-.7-.7h-2.6z"/></symbol><symbol fill="currentColor" viewBox="0 0 16 16" id="icon-play" xmlns="http://www.w3.org/2000/svg"><path d="M3 1.713a.7.7 0 011.05-.607l10.89 6.288a.7.7 0 010 1.212L4.05 14.894A.7.7 0 013 14.288V1.713z"/></symbol><symbol fill="currentColor" viewBox="0 0 16 16" id="icon-previous" xmlns="http://www.w3.org/2000/svg"><path d="M3.3 1a.7.7 0 01.7.7v5.15l9.95-5.744a.7.7 0 011.05.606v12.575a.7.7 0 01-1.05.607L4 9.149V14.3a.7.7 0 01-.7.7H1.7a.7.7 0 01-.7-.7V1.7a.7.7 0 01.7-.7h1.6z"/></symbol><symbol fill="currentColor" viewBox="0 0 16 16" id="icon-repeat" xmlns="http://www.w3.org/2000/svg"><path d="M0 4.75A3.75 3.75 0 013.75 1h8.5A3.75 3.75 0 0116 4.75v5a3.75 3.75 0 01-3.75 3.75H9.81l1.018 1.018a.75.75 0 11-1.06 1.06L6.939 12.75l2.829-2.828a.75.75 0 111.06 1.06L9.811 12h2.439a2.25 2.25 0 002.25-2.25v-5a2.25 2.25 0 00-2.25-2.25h-8.5A2.25 2.25 0 001.5 4.75v5A2.25 2.25 0 003.75 12H5v1.5H3.75A3.75 3.75 0 010 9.75v-5z"/></symbol><symbol fill="currentColor" viewBox="0 0 16 16" id="icon-repeat-track" xmlns="http://www.w3.org/2000/svg"><path d="M0 4.75A3.75 3.75 0 013.75 1h.75v1.5h-.75A2.25 2.25 0 001.5 4.75v5A2.25 2.25 0 003.75 12H5v1.5H3.75A3.75 3.75 0 010 9.75v-5zM12.25 2.5h-.75V1h.75A3.75 3.75 0 0116 4.75v5a3.75 3.75 0 01-3.75 3.75H9.81l1.018 1.018a.75.75 0 11-1.06 1.06L6.939 12.75l2.829-2.828a.75.75 0 111.06 1.06L9.811 12h2.439a2.25 2.25 0 002.25-2.25v-5a2.25 2.25 0 00-2.25-2.25z"/><path d="M9.12 8V1H7.787c-.128.72-.76 1.293-1.787 1.313V3.36h1.57V8h1.55z"/></symbol><symbol fill="currentColor" viewBox="0 0 24 24" id="icon-search" xmlns="http://www.w3.org/2000/svg"><path d="M10.533 1.279c-5.18 0-9.407 4.14-9.407 9.279s4.226 9.279 9.407 9.279c2.234 0 4.29-.77 5.907-2.058l4.353 4.353a1 1 0 101.414-1.414l-4.344-4.344a9.157 9.157 0 002.077-5.816c0-5.14-4.226-9.28-9.407-9.28zm-7.407 9.279c0-4.006 3.302-7.28 7.407-7.28s7.407 3.274 7.407 7.28-3.302 7.279-7.407 7.279-7.407-3.273-7.407-7.28z"/></symbol><symbol fill="currentColor" viewBox="0 0 24 24" id="icon-search-active" xmlns="http://www.w3.org/2000/svg"><path d="M15.356 10.558c0 2.623-2.16 4.75-4.823 4.75-2.664 0-4.824-2.127-4.824-4.75s2.16-4.75 4.824-4.75c2.664 0 4.823 2.127 4.823 4.75z"/><path d="M1.126 10.558c0-5.14 4.226-9.28 9.407-9.28 5.18 0 9.407 4.14 9.407 9.28a9.157 9.157 0 01-2.077 5.816l4.344 4.344a1 1 0 01-1.414 1.414l-4.353-4.353a9.454 9.454 0 01-5.907 2.058c-5.18 0-9.407-4.14-9.407-9.28zm9.407-7.28c-4.105 0-7.407 3.274-7.407 7.28s3.302 7.279 7.407 7.279 7.407-3.273 7.407-7.28c0-4.005-3.302-7.278-7.407-7.278z"/></symbol><symbol fill="currentColor" viewBox="0 0 16 16" id="icon-shuffle" xmlns="http://www.w3.org/2000/svg"><path d="M13.151.922a.75.75 0 10-1.06 1.06L13.109 3H11.16a3.75 3.75 0 00-2.873 1.34l-6.173 7.356A2.25 2.25 0 01.39 12.5H0V14h.391a3.75 3.75 0 002.873-1.34l6.173-7.356a2.25 2.25 0 011.724-.804h1.947l-1.017 1.018a.75.75 0 001.06 1.06L15.98 3.75 13.15.922zM.391 3.5H0V2h.391c1.109 0 2.16.49 2.873 1.34L4.89 5.277l-.979 1.167-1.796-2.14A2.25 2.25 0 00.39 3.5z"/><path d="M7.5 10.723l.98-1.167.957 1.14a2.25 2.25 0 001.724.804h1.947l-1.017-1.018a.75.75 0 111.06-1.06l2.829 2.828-2.829 2.828a.75.75 0 11-1.06-1.06L13.109 13H11.16a3.75 3.75 0 01-2.873-1.34l-.787-.938z"/></symbol><symbol fill="currentColor" viewBox="0 0 16 16" id="icon-sliders" xmlns="http://www.w3.org/2000/svg"><path fill-rule="evenodd" d="M11.5 2a1.5 1.5 0 100 3 1.5 1.5 0 000-3zM9.05 3a2.5 2.5 0 014.9 0H16v1h-2.05a2.5 2.5 0 01-4.9 0H0V3h9.05zM4.5 7a1.5 1.5 0 100 3 1.5 1.5 0 000-3zM2.05 8a2.5 2.5 0 014.9 0H16v1H6.95a2.5 2.5 0 01-4.9 0H0V8h2.05zm9.45 4a1.5 1.5 0 100 3 1.5 1.5 0 000-3zm-2.45 1a2.5 2.5 0 014.9 0H16v1h-2.05a2.5 2.5 0 01-4.9 0H0v-1h9.05z"/></symbol><symbol fill="currentColor" viewBox="0 0 16 16" id="icon-smartphone" xmlns="http://www.w3.org/2000/svg"><path d="M12 .999H4c-.55 0-1 .45-1 1v12c0 .55.45 1 1 1h8c.55 0 1-.45 1-1V2c0-.55-.45-1.001-1-1.001zM12 14H4V2h8v12z"/><circle cx="7.984" cy="12.482" r=".75"/></symbol><symbol fill="currentColor" viewBox="0 0 16 16" id="icon-smartwatch" xmlns="http://www.w3.org/2000/svg"><path d="M11.846 3h-1.059l-.638-3H5.85l-.638 3H4.154C3.519 3 3 3.52 3 4.154v7.692C3 12.481 3.519 13 4.154 13h1.059l.638 3h4.299l.638-3h1.059c.634 0 1.153-.519 1.153-1.154V4.154C13 3.52 12.481 3 11.846 3zM6.66 1h2.68l.425 2h-3.53l.425-2zm2.68 14H6.66l-.425-2h3.53l-.425 2zM12 11.846a.158.158 0 01-.154.154H4.154A.158.158 0 014 11.846V4.154C4 4.072 4.072 4 4.154 4h7.692c.082 0 .154.072.154.154v7.692z"/><path d="M11.846 3h-1.059l-.638-3H5.85l-.638 3H4.154C3.519 3 3 3.52 3 4.154v7.692C3 12.481 3.519 13 4.154 13h1.059l.638 3h4.299l.638-3h1.059c.634 0 1.153-.519 1.153-1.154V4.154C13 3.52 12.481 3 11.846 3zM6.66 1h2.68l.425 2h-3.53l.425-2zm2.68 14H6.66l-.425-2h3.53l-.425 2zM12 11.846a.158.158 0 01-.154.154H4.154A.158.158 0 014 11.846V4.154C4 4.072 4.072 4 4.154 4h7.692c.082 0 .154.072.154.154v7.692z"/></symbol><symbol fill="currentColor" viewBox="0 0 16 16" id="icon-tablet" xmlns="http://www.w3.org/2000/svg"><circle cx="7.984" cy="12.482" r=".75"/><path d="M14 .999H2c-.55 0-1 .45-1 1v12c0 .55.45 1 1 1h12c.55 0 1-.45 1-1V2c0-.55-.45-1.001-1-1.001zM14 14H2V2h12v12z"/></symbol><symbol fill="currentColor" viewBox="0 0 16 16" id="icon-times" xmlns="http://www.w3.org/2000/svg"><path d="M1.47 1.47a.75.75 0 011.06 0L8 6.94l5.47-5.47a.75.75 0 111.06 1.06L9.06 8l5.47 5.47a.75.75 0 11-1.06 1.06L8 9.06l-5.47 5.47a.75.75 0 01-1.06-1.06L6.94 8 1.47 2.53a.75.75 0 010-1.06z"/></symbol><symbol fill="currentColor" viewBox="0 0 16 16" id="icon-tv" xmlns="http://www.w3.org/2000/svg"><path d="M14 2H2c-.55 0-1 .45-1 1v8c0 .55.45 1 1 1h12c.55 0 1-.45 1-1V3c0-.55-.45-1-1-1zm0 9H2V3h12v8zm-3.5 3h-5c-.275 0-.5.225-.5.5s.225.5.5.5h5c.275 0 .5-.225.5-.5s-.225-.5-.5-.5z"/><path d="M14 2H2c-.55 0-1 .45-1 1v8c0 .55.45 1 1 1h12c.55 0 1-.45 1-1V3c0-.55-.45-1-1-1zm0 9H2V3h12v8zm-3.5 3h-5c-.275 0-.5.225-.5.5s.225.5.5.5h5c.275 0 .5-.225.5-.5s-.225-.5-.5-.5z"/></symbol><symbol fill="currentColor" viewBox="0 0 16 16" id="icon-volume-high" xmlns="http://www.w3.org/2000/svg"><path d="M9.741.85a.75.75 0 01.375.65v13a.75.75 0 01-1.125.65l-6.925-4a3.642 3.642 0 01-1.33-4.967 3.639 3.639 0 011.33-1.332l6.925-4a.75.75 0 01.75 0zm-6.924 5.3a2.139 2.139 0 000 3.7l5.8 3.35V2.8l-5.8 3.35zm8.683 4.29V5.56a2.75 2.75 0 010 4.88z"/><path d="M11.5 13.614a5.752 5.752 0 000-11.228v1.55a4.252 4.252 0 010 8.127v1.55z"/></symbol><symbol fill="currentColor" viewBox="0 0 16 16" id="icon-volume-low" xmlns="http://www.w3.org/2000/svg"><path d="M9.741.85a.75.75 0 01.375.65v13a.75.75 0 01-1.125.65l-6.925-4a3.642 3.642 0 01-1.33-4.967 3.639 3.639 0 011.33-1.332l6.925-4a.75.75 0 01.75 0zm-6.924 5.3a2.139 2.139 0 000 3.7l5.8 3.35V2.8l-5.8 3.35zm8.683 4.29V5.56a2.75 2.75 0 010 4.88z"/></symbol><symbol fill="currentColor" viewBox="0 0 16 16" id="icon-volume-medium" xmlns="http://www.w3.org/2000/svg"><path d="M9.741.85a.75.75 0 01.375.65v13a.75.75 0 01-1.125.65l-6.925-4a3.642 3.642 0 01-1.33-4.967 3.639 3.639 0 011.33-1.332l6.925-4a.75.75 0 01.75 0zm-6.924 5.3a2.139 2.139 0 000 3.7l5.8 3.35V2.8l-5.8 3.35zm8.683 6.087a4.502 4.502 0 000-8.474v1.65a2.999 2.999 0 010 5.175v1.649z"/></symbol><symbol fill="currentColor" viewBox="0 0 16 16" id="icon-volume-off" xmlns="http://www.w3.org/2000/svg"><path d="M13.86 5.47a.75.75 0 00-1.061 0l-1.47 1.47-1.47-1.47A.75.75 0 008.8 6.53L10.269 8l-1.47 1.47a.75.75 0 101.06 1.06l1.47-1.47 1.47 1.47a.75.75 0 001.06-1.06L12.39 8l1.47-1.47a.75.75 0 000-1.06z"/><path d="M10.116 1.5A.75.75 0 008.991.85l-6.925 4a3.642 3.642 0 00-1.33 4.967 3.639 3.639 0 001.33 1.332l6.925 4a.75.75 0 001.125-.649v-1.906a4.73 4.73 0 01-1.5-.694v1.3L2.817 9.852a2.141 2.141 0 01-.781-2.92c.187-.324.456-.594.78-.782l5.8-3.35v1.3c.45-.313.956-.55 1.5-.694V1.5z"/></symbol></svg>