<?xml version="1.0" standalone="no"?>
<!DOCTYPE svg PUBLIC "-//W3C//DTD SVG 20010904//EN"
 "http://www.w3.org/TR/2001/REC-SVG-20010904/DTD/svg10.dtd">
<svg version="1.0" xmlns="http://www.w3.org/2000/svg"
 width="1024.000000pt" height="1024.000000pt" viewBox="0 0 1024.000000 1024.000000"
 preserveAspectRatio="xMidYMid meet">
<metadata>
Created by potrace 1.14, written by Peter Selinger 2001-2017
</metadata>
<g transform="translate(0.000000,1024.000000) scale(0.100000,-0.100000)"
fill="#000000" stroke="none">
<path d="M4997 10224 c-1 -1 -63 -5 -137 -9 -74 -3 -148 -8 -165 -9 -16 -2
-66 -7 -109 -10 -43 -4 -87 -9 -96 -11 -9 -2 -41 -6 -71 -10 -413 -50 -968
-209 -1384 -396 -27 -12 -52 -22 -55 -22 -3 1 -17 -8 -32 -18 -14 -10 -31 -19
-36 -19 -18 0 -268 -134 -417 -223 -160 -96 -407 -266 -511 -351 -221 -179
-300 -251 -465 -415 -257 -258 -420 -451 -605 -721 -194 -281 -338 -542 -492
-890 -76 -172 -204 -546 -238 -695 -1 -5 -13 -55 -27 -110 -29 -111 -54 -236
-71 -352 -3 -16 -7 -41 -10 -58 -57 -320 -76 -883 -42 -1230 13 -129 19 -182
21 -195 1 -8 6 -40 9 -70 46 -373 183 -869 348 -1265 192 -460 501 -964 808
-1319 194 -225 417 -448 599 -599 47 -39 88 -74 91 -77 9 -11 175 -136 275
-207 305 -217 704 -432 1059 -573 189 -74 507 -174 686 -215 74 -17 201 -45
225 -49 63 -11 151 -26 170 -30 11 -2 47 -7 80 -11 33 -4 71 -9 85 -11 14 -2
50 -6 80 -9 30 -4 69 -8 86 -10 191 -23 813 -23 929 0 11 2 49 7 85 10 251 22
615 94 900 179 363 107 749 272 1075 459 568 327 1053 741 1451 1237 299 373
527 751 721 1200 13 30 28 64 32 75 5 11 15 36 21 55 7 19 19 49 26 65 14 33
65 174 68 190 1 6 16 55 34 110 29 94 79 274 87 313 2 9 11 49 20 87 9 39 18
86 21 105 3 19 7 42 9 50 3 8 7 33 10 55 4 22 8 47 10 55 2 8 7 35 10 60 3 25
8 63 12 85 8 53 11 76 19 165 3 41 8 83 10 92 22 120 21 655 -1 883 -16 164
-33 295 -45 360 -6 28 -12 66 -14 85 -26 205 -161 689 -268 960 -115 289 -287
633 -427 850 -20 30 -40 63 -46 72 -42 74 -305 433 -335 458 -3 3 -15 17 -25
31 -64 83 -244 277 -375 404 -564 546 -1237 951 -1980 1191 -109 35 -296 89
-340 98 -14 3 -65 15 -115 26 -147 34 -265 55 -420 75 -27 3 -61 8 -75 10 -14
3 -50 7 -80 10 -30 3 -75 7 -100 10 -96 10 -556 25 -563 19z m-237 -2709 c107
-3 218 -8 245 -10 28 -2 93 -6 145 -10 53 -3 109 -8 125 -9 17 -2 66 -7 110
-10 44 -4 94 -9 110 -11 17 -3 53 -7 80 -10 60 -6 208 -24 250 -30 320 -47
707 -119 885 -165 19 -5 46 -11 60 -14 21 -3 83 -20 305 -80 322 -87 685 -219
1040 -379 73 -33 322 -159 388 -196 20 -11 54 -31 74 -42 139 -79 211 -160
260 -293 19 -51 26 -199 12 -251 -19 -76 -77 -179 -131 -233 -53 -54 -163
-116 -223 -127 -164 -29 -248 -11 -424 93 -87 51 -316 166 -421 212 -41 18
-88 38 -105 46 -50 22 -227 90 -270 104 -22 7 -44 15 -50 19 -5 3 -14 6 -20 7
-5 1 -64 20 -130 42 -66 22 -169 54 -230 71 -60 17 -123 35 -140 40 -16 5 -59
17 -95 25 -36 8 -104 25 -152 36 -116 27 -362 77 -418 85 -25 3 -52 8 -60 10
-19 5 -67 13 -116 20 -22 3 -50 7 -64 10 -14 3 -43 7 -65 10 -22 3 -56 7 -75
10 -19 3 -57 7 -85 10 -27 3 -66 7 -85 10 -53 7 -192 21 -310 31 -41 3 -91 7
-110 9 -268 26 -1033 26 -1385 0 -103 -8 -181 -15 -225 -20 -25 -3 -67 -7 -95
-10 -27 -3 -61 -7 -75 -10 -14 -3 -50 -7 -80 -10 -30 -2 -64 -7 -76 -9 -12 -2
-45 -8 -75 -11 -30 -4 -63 -9 -74 -11 -11 -2 -36 -6 -55 -9 -150 -25 -457 -93
-610 -135 -201 -54 -272 -61 -368 -36 -273 73 -422 356 -329 623 22 63 61 124
112 175 83 83 138 107 404 178 160 42 423 100 571 125 52 9 106 18 120 21 14
2 43 7 65 10 22 2 67 9 100 14 108 16 384 48 485 55 25 2 83 7 130 11 135 10
163 12 390 19 118 4 216 8 217 9 4 3 368 -2 543 -9z m-90 -1759 c94 -5 138 -9
285 -21 37 -3 117 -11 205 -20 47 -5 175 -22 225 -29 11 -2 43 -7 70 -10 28
-4 73 -11 100 -16 28 -5 66 -12 85 -15 65 -11 335 -66 375 -76 22 -6 51 -13
65 -15 51 -9 429 -115 545 -153 215 -70 473 -168 603 -227 29 -13 55 -24 58
-24 3 0 83 -38 179 -85 239 -117 488 -260 552 -318 64 -59 112 -151 119 -228
3 -30 7 -59 9 -66 7 -21 -25 -136 -51 -184 -75 -138 -211 -211 -376 -204 -80
4 -117 18 -238 90 -212 126 -555 291 -799 382 -263 98 -708 230 -870 258 -19
3 -37 8 -41 10 -4 2 -22 7 -41 10 -19 3 -54 9 -79 15 -122 26 -372 65 -539 85
-30 4 -62 8 -71 10 -9 2 -57 6 -106 10 -49 4 -105 8 -124 10 -187 19 -745 25
-955 11 -185 -12 -264 -19 -355 -31 -19 -2 -57 -7 -85 -10 -277 -30 -561 -88
-899 -182 -114 -31 -139 -35 -208 -30 -144 9 -270 95 -332 227 -28 59 -31 74
-31 165 0 92 3 106 32 167 36 76 107 152 174 185 52 26 323 105 435 127 11 2
51 12 89 21 39 9 79 18 90 20 11 2 65 12 120 23 55 11 163 30 240 42 77 11
151 23 165 25 14 2 54 6 90 10 36 3 72 8 80 10 8 2 56 7 105 10 50 4 106 8
125 10 19 2 105 7 190 11 85 3 156 7 157 8 5 5 534 -2 633 -8z m155 -1670 c22
-3 69 -8 105 -11 136 -11 268 -27 415 -50 55 -9 113 -18 129 -20 15 -2 35 -7
45 -9 9 -3 30 -8 46 -10 349 -59 877 -226 1215 -384 180 -84 210 -98 357 -179
195 -106 252 -143 291 -187 79 -91 100 -230 50 -338 -50 -108 -144 -174 -263
-185 -84 -8 -136 10 -289 99 -313 182 -635 320 -1021 437 -74 23 -369 96 -420
105 -16 3 -82 14 -145 25 -118 22 -304 46 -420 56 -36 3 -78 8 -95 10 -56 8
-349 18 -500 18 -184 0 -474 -13 -615 -27 -36 -4 -87 -9 -115 -12 -84 -7 -153
-15 -245 -29 -25 -4 -56 -8 -70 -10 -31 -4 -104 -15 -145 -21 -56 -9 -310 -55
-350 -64 -22 -5 -56 -12 -75 -15 -19 -3 -51 -10 -70 -15 -82 -21 -109 -25
-180 -24 -61 0 -85 6 -130 28 -118 59 -189 183 -177 310 7 78 34 136 87 192
48 51 92 75 165 93 117 29 476 100 593 117 20 3 44 7 52 10 8 2 38 6 65 9 28
4 61 8 75 10 36 6 259 35 300 40 157 16 227 22 385 31 66 3 122 8 124 10 6 5
781 -4 826 -10z"/>
</g>
</svg>
